<svg xmlns="http://www.w3.org/2000/svg" width="300" height="108" viewBox="0 0 300 108">
  <g id="kalite_logo" transform="translate(-162 -235)">
    <rect id="Rectangle_13" data-name="Rectangle 13" width="300" height="108" transform="translate(162 235)" fill="none"/>
    <g id="Kalite_Mavi" data-name="Kalite Mavi" transform="translate(181.7 251.322)">
      <g id="Group_1" data-name="Group 1" transform="translate(84.408 14.047)">
        <path id="Path_1" data-name="Path 1" d="M112.03,42.816V23.5H116V42.816Zm3.737-5.914-1.13-2.923,8.2-10.488h4.98Zm3.94-5.764,8.717,11.671h-5.04l-6.721-9.124,3.044-2.547Z" transform="translate(-112.03 -19.836)" fill="#fff"/>
        <path id="Path_2" data-name="Path 2" d="M133.98,42.818,141.394,23.5h4.257l7.1,19.318h-4.084l-6.314-17.992,1.74-.173-6.284,18.165h-3.82Zm3.91-4.724.957-3.014h8.981l.347,3.014Z" transform="translate(-117.442 -19.838)" fill="#fff"/>
        <path id="Path_3" data-name="Path 3" d="M161.2,42.818V23.5h3.971V39.609h8.808v3.217H161.2Z" transform="translate(-124.153 -19.838)" fill="#fff"/>
        <path id="Path_4" data-name="Path 4" d="M181.04,41.62V22.3h3.971V41.62Zm.316-20.252V18.64h3.157v2.727h-3.157Z" transform="translate(-129.045 -18.64)" fill="#fff"/>
        <path id="Path_5" data-name="Path 5" d="M194.744,42.818V26.657H188.92V23.5h15.641v3.157h-5.877V42.818Z" transform="translate(-130.988 -19.838)" fill="#fff"/>
        <path id="Path_6" data-name="Path 6" d="M212.29,42.818V23.5h12.952v3.157h-8.981v4.9h7.821v3.187H216.23v4.927h9.011v3.157H212.29Z" transform="translate(-136.75 -19.838)" fill="#fff"/>
        <path id="Path_7" data-name="Path 7" d="M113.59,75.218V63.14h2.479V75.218Zm2.336-3.692-.708-1.831,5.123-6.555h3.112l-7.534,8.378Zm2.464-3.6,5.447,7.293h-3.149l-4.2-5.7Z" transform="translate(-112.415 -29.612)" fill="#fff"/>
        <path id="Path_8" data-name="Path 8" d="M134.579,75.367a6.55,6.55,0,0,1-3.082-.678,4.5,4.5,0,0,1-1.982-2.064,7.866,7.866,0,0,1-.686-3.5,6.584,6.584,0,0,1,1.492-4.679,5.583,5.583,0,0,1,4.264-1.582,6.582,6.582,0,0,1,3.089.678,4.5,4.5,0,0,1,1.982,2.064,7.866,7.866,0,0,1,.686,3.5,6.584,6.584,0,0,1-1.492,4.679,5.583,5.583,0,0,1-4.264,1.582Zm0-2.064a3.5,3.5,0,0,0,1.786-.414,2.588,2.588,0,0,0,1.077-1.349,8.369,8.369,0,0,0,0-4.867,2.544,2.544,0,0,0-1.077-1.334,3.48,3.48,0,0,0-1.786-.414,3.425,3.425,0,0,0-1.786.429,2.629,2.629,0,0,0-1.077,1.341,8.369,8.369,0,0,0,0,4.867,2.544,2.544,0,0,0,1.077,1.334,3.48,3.48,0,0,0,1.786.414Z" transform="translate(-116.172 -29.543)" fill="#fff"/>
        <path id="Path_9" data-name="Path 9" d="M152.166,75.367a6.582,6.582,0,0,1-3.089-.678,4.54,4.54,0,0,1-1.982-2.064,7.866,7.866,0,0,1-.686-3.5,6.584,6.584,0,0,1,1.492-4.679,5.583,5.583,0,0,1,4.264-1.582,6.582,6.582,0,0,1,3.089.678,4.54,4.54,0,0,1,1.982,2.064,7.866,7.866,0,0,1,.686,3.5,6.584,6.584,0,0,1-1.492,4.679A5.583,5.583,0,0,1,152.166,75.367Zm0-2.064a3.5,3.5,0,0,0,1.786-.414,2.588,2.588,0,0,0,1.077-1.349,8.369,8.369,0,0,0,0-4.867,2.58,2.58,0,0,0-1.077-1.334,3.48,3.48,0,0,0-1.786-.414,3.425,3.425,0,0,0-1.786.429,2.629,2.629,0,0,0-1.077,1.341,8.369,8.369,0,0,0,0,4.867,2.58,2.58,0,0,0,1.077,1.334,3.48,3.48,0,0,0,1.786.414Z" transform="translate(-120.507 -29.543)" fill="#fff"/>
        <path id="Path_10" data-name="Path 10" d="M164.645,75.218V63.14h5.628a4.512,4.512,0,0,1,3.044.934,3.477,3.477,0,0,1,1.085,2.8,4.044,4.044,0,0,1-.354,1.658,3.285,3.285,0,0,1-2.69,1.959l.015-.814,3.617,5.538h-3.1l-3.187-5.342,1.108.979h-2.72V75.21H164.63Zm2.464-6.261h2.645a2.179,2.179,0,0,0,1.5-.467,1.885,1.885,0,0,0,.527-1.484,2.008,2.008,0,0,0-.437-1.394,1.747,1.747,0,0,0-1.371-.49h-2.863v3.835Z" transform="translate(-124.999 -29.612)" fill="#fff"/>
        <path id="Path_11" data-name="Path 11" d="M181.16,75.218V63.14H185.7a5.84,5.84,0,0,1,4.445,1.522,6.345,6.345,0,0,1,1.439,4.506,6.365,6.365,0,0,1-1.439,4.513A5.842,5.842,0,0,1,185.7,75.21H181.16Zm2.456-1.974h1.808a3.536,3.536,0,0,0,2.735-.979,4.447,4.447,0,0,0,.9-3.1,4.459,4.459,0,0,0-.9-3.1,3.564,3.564,0,0,0-2.735-.979h-1.808v8.145Z" transform="translate(-129.075 -29.612)" fill="#fff"/>
        <path id="Path_12" data-name="Path 12" d="M197.95,74.473V62.4h2.479V74.473Zm.2-12.65v-1.7h1.974v1.7Z" transform="translate(-133.214 -28.867)" fill="#fff"/>
        <path id="Path_13" data-name="Path 13" d="M204.85,75.218V63.14h2.208l6.593,9-.708,1.447V63.14h2.3V75.218h-2.012l-6.736-9.049.655-1.108V75.218h-2.3Z" transform="translate(-134.916 -29.612)" fill="#fff"/>
        <path id="Path_14" data-name="Path 14" d="M220.8,75.218l4.634-12.078h2.66l4.438,12.078h-2.554l-3.948-11.241,1.085-.105-3.925,11.354H220.8Zm2.449-2.946.6-1.884h5.613l.218,1.884h-6.427Z" transform="translate(-138.848 -29.612)" fill="#fff"/>
        <path id="Path_15" data-name="Path 15" d="M239.489,75.218v-10.1H235.85V63.14h9.772v1.974h-3.677v10.1h-2.464Z" transform="translate(-142.559 -29.612)" fill="#fff"/>
        <path id="Path_16" data-name="Path 16" d="M256.119,74.536a6.55,6.55,0,0,1-3.082-.678,4.5,4.5,0,0,1-1.982-2.064,7.866,7.866,0,0,1-.686-3.5,6.584,6.584,0,0,1,1.492-4.679,5.583,5.583,0,0,1,4.264-1.582,6.582,6.582,0,0,1,3.089.678,4.5,4.5,0,0,1,1.982,2.064,7.867,7.867,0,0,1,.686,3.5,6.584,6.584,0,0,1-1.492,4.679,5.583,5.583,0,0,1-4.264,1.582Zm0-2.064a3.5,3.5,0,0,0,1.786-.414,2.588,2.588,0,0,0,1.077-1.349,8.369,8.369,0,0,0,0-4.867,2.544,2.544,0,0,0-1.077-1.334,3.5,3.5,0,0,0-1.786-.414,3.425,3.425,0,0,0-1.786.429,2.629,2.629,0,0,0-1.077,1.341,8.369,8.369,0,0,0,0,4.867,2.544,2.544,0,0,0,1.077,1.334,3.48,3.48,0,0,0,1.786.414Zm-2.569-11.279v-1.7h2.064v1.7h-2.064Zm3.127,0v-1.7h2.079v1.7Z" transform="translate(-146.139 -28.712)" fill="#fff"/>
        <path id="Path_17" data-name="Path 17" d="M268.6,75.218V63.14h5.628a4.512,4.512,0,0,1,3.044.934,3.477,3.477,0,0,1,1.085,2.8A4.045,4.045,0,0,1,278,68.527a3.327,3.327,0,0,1-1.032,1.311,3.387,3.387,0,0,1-1.658.648l.015-.814,3.616,5.538h-3.1l-3.187-5.342,1.108.979h-2.72V75.21H268.58Zm2.456-6.261H273.7a2.179,2.179,0,0,0,1.5-.467,1.912,1.912,0,0,0,.527-1.484,2.008,2.008,0,0,0-.437-1.394,1.765,1.765,0,0,0-1.379-.49h-2.863v3.835Z" transform="translate(-150.629 -29.612)" fill="#fff"/>
        <path id="Path_18" data-name="Path 18" d="M285.108,75.218V63.14h2.479V73.206h5.5v2.012H285.1Z" transform="translate(-154.702 -29.612)" fill="#fff"/>
        <path id="Path_19" data-name="Path 19" d="M303.549,74.686a5.732,5.732,0,0,1-3.971-1.221,4.786,4.786,0,0,1-1.349-3.722V62.3h2.554v7.369a3.4,3.4,0,0,0,.655,2.3,2.526,2.526,0,0,0,2.012.738,2.591,2.591,0,0,0,1.982-.738,3.287,3.287,0,0,0,.693-2.3V62.3h2.351v7.444a5.612,5.612,0,0,1-.618,2.773,3.868,3.868,0,0,1-1.718,1.635,5.917,5.917,0,0,1-2.592.535Zm-2.84-13.253v-1.7h2.064v1.7Zm3.127,0v-1.7h2.08v1.7Z" transform="translate(-157.94 -28.771)" fill="#fff"/>
        <path id="Path_20" data-name="Path 20" d="M320.589,74.43a6.948,6.948,0,0,1-3.112-.648,4.428,4.428,0,0,1-2-2.034,7.93,7.93,0,0,1-.7-3.571,7.828,7.828,0,0,1,.7-3.549,4.516,4.516,0,0,1,2-2.057,6.707,6.707,0,0,1,3.1-.663,10.72,10.72,0,0,1,2.155.218,10.378,10.378,0,0,1,2.027.633v2.3a17.3,17.3,0,0,0-1.951-.851,5.717,5.717,0,0,0-1.921-.324,4.26,4.26,0,0,0-1.982.414,2.658,2.658,0,0,0-1.213,1.356,6.45,6.45,0,0,0-.407,2.516,6.381,6.381,0,0,0,.414,2.5,2.73,2.73,0,0,0,1.206,1.364,3.9,3.9,0,0,0,1.891.422,6.825,6.825,0,0,0,1.062-.083,5.141,5.141,0,0,0,.934-.241V69.616h-2.26V67.627h4.724V73.24a10.367,10.367,0,0,1-2.26.889,9.486,9.486,0,0,1-2.388.309Zm.023-13.05a2.728,2.728,0,0,1-1.319-.294,2.23,2.23,0,0,1-.859-.814,3.7,3.7,0,0,1-.46-1.213h1.341a1.938,1.938,0,0,0,.46.738,1.113,1.113,0,0,0,.844.324,1.1,1.1,0,0,0,.836-.324,2.314,2.314,0,0,0,.467-.738h1.341a3.012,3.012,0,0,1-.414,1.213,2.184,2.184,0,0,1-.882.814,2.833,2.833,0,0,1-1.349.294Z" transform="translate(-162.02 -28.606)" fill="#fff"/>
        <path id="Path_21" data-name="Path 21" d="M337.6,74.686a5.732,5.732,0,0,1-3.971-1.221,4.786,4.786,0,0,1-1.349-3.722V62.3h2.554v7.369a3.4,3.4,0,0,0,.655,2.3,2.526,2.526,0,0,0,2.012.738,2.592,2.592,0,0,0,1.982-.738,3.287,3.287,0,0,0,.693-2.3V62.3h2.351v7.444a5.612,5.612,0,0,1-.618,2.773,3.868,3.868,0,0,1-1.718,1.635,5.917,5.917,0,0,1-2.592.535Zm-2.84-13.253v-1.7h2.064v1.7Zm3.127,0v-1.7h2.079v1.7Z" transform="translate(-166.335 -28.771)" fill="#fff"/>
      </g>
      <g id="Group_5" data-name="Group 5" transform="translate(0 0.01)">
        <g id="Group_2" data-name="Group 2" transform="translate(0 54.233)">
          <path id="Path_22" data-name="Path 22" d="M33.324,76.518a4.323,4.323,0,0,1-.58-.038,1.985,1.985,0,0,1-.452-.113,4.053,4.053,0,0,1-.422-.188v-.723a2.051,2.051,0,0,0,.625.332,2.235,2.235,0,0,0,.791.128.909.909,0,0,0,.61-.166.564.564,0,0,0,.2-.46.488.488,0,0,0-.151-.369,1.291,1.291,0,0,0-.392-.241c-.166-.068-.339-.128-.52-.2-.143-.053-.279-.105-.414-.166a1.672,1.672,0,0,1-.369-.226.943.943,0,0,1-.264-.347,1.209,1.209,0,0,1-.1-.52,1.282,1.282,0,0,1,.083-.437,1.182,1.182,0,0,1,.264-.407,1.168,1.168,0,0,1,.46-.286,2.049,2.049,0,0,1,.686-.105,2.763,2.763,0,0,1,.46.03,1.49,1.49,0,0,1,.369.105c.113.053.241.105.377.166V73c-.113-.068-.219-.136-.332-.2a1.8,1.8,0,0,0-.369-.151,1.9,1.9,0,0,0-.445-.068,1.1,1.1,0,0,0-.452.068.631.631,0,0,0-.271.2.526.526,0,0,0-.09.3.547.547,0,0,0,.113.362.886.886,0,0,0,.324.226,4.047,4.047,0,0,0,.49.173,4.427,4.427,0,0,1,.475.181,1.659,1.659,0,0,1,.407.241,1.208,1.208,0,0,1,.286.354,1.1,1.1,0,0,1,.105.52,1.344,1.344,0,0,1-.158.64,1.224,1.224,0,0,1-.49.49,1.718,1.718,0,0,1-.866.188Z" transform="translate(-7.858 -71.99)" fill="#fff"/>
          <path id="Path_23" data-name="Path 23" d="M36.41,76.467l1.71-4.377h.769l1.665,4.377h-.761l-1.469-4.023.279-.023-1.469,4.054H36.41Zm.844-1.19.211-.588h2.087l.06.588Z" transform="translate(-8.977 -72.015)" fill="#fff"/>
          <path id="Path_24" data-name="Path 24" d="M42.76,76.467V72.09h.731v4.377Zm.678-1.364-.151-.64,1.974-2.373h.919Zm.829-1.213,2.049,2.577h-.949l-1.658-2.1Z" transform="translate(-10.543 -72.015)" fill="#fff"/>
          <path id="Path_25" data-name="Path 25" d="M47.82,76.467l1.71-4.377H50.3l1.665,4.377H51.2l-1.469-4.023.279-.023-1.469,4.054H47.82Zm.844-1.19.211-.588h2.087l.06.588Z" transform="translate(-11.791 -72.015)" fill="#fff"/>
          <path id="Path_26" data-name="Path 26" d="M54.18,76.467V72.09h1.951a1.539,1.539,0,0,1,1.055.332,1.273,1.273,0,0,1,.369.987,1.492,1.492,0,0,1-.136.633,1.167,1.167,0,0,1-.4.475,1.215,1.215,0,0,1-.625.211l.083-.226,1.3,1.974h-.9l-1.221-1.966.339.309H54.918v1.658H54.2Zm.723-2.245h1.025a.938.938,0,0,0,.648-.188.73.73,0,0,0,.211-.58.822.822,0,0,0-.166-.558.736.736,0,0,0-.58-.2H54.9Z" transform="translate(-13.359 -72.015)" fill="#fff"/>
          <path id="Path_27" data-name="Path 27" d="M60.638,76.465V74.5L58.98,72.08h.889L61.2,74.152l-.294-.023,1.266-2.042h.784l-1.71,2.592.113-.407v2.193h-.723Z" transform="translate(-14.542 -72.012)" fill="#fff"/>
          <path id="Path_28" data-name="Path 28" d="M63.81,76.467l1.71-4.377h.769l1.665,4.377h-.761l-1.469-4.023L66,72.422l-1.469,4.054H63.81Zm.844-1.19.211-.588h2.087l.06.588Z" transform="translate(-15.733 -72.015)" fill="#fff"/>
          <path id="Path_29" data-name="Path 29" d="M2.027,87.563A2.307,2.307,0,0,1,.5,87.134,1.654,1.654,0,0,1,0,85.793V83.05H1.115v2.7a1.131,1.131,0,0,0,.2.746.8.8,0,0,0,.655.241.834.834,0,0,0,.633-.241,1.064,1.064,0,0,0,.226-.746v-2.7H3.85v2.743a1.916,1.916,0,0,1-.234,1,1.444,1.444,0,0,1-.64.58,2.2,2.2,0,0,1-.949.188Z" transform="translate(0 -74.717)" fill="#fff"/>
          <path id="Path_30" data-name="Path 30" d="M7.755,87.427V85.536L6.09,83.05H7.4l1.251,2.095h-.5L9.292,83.05h1.062L8.667,85.8l.151-.565v2.193H7.748Z" transform="translate(-1.502 -74.717)" fill="#fff"/>
          <path id="Path_31" data-name="Path 31" d="M14.287,87.483a2.546,2.546,0,0,1-1.13-.234,1.643,1.643,0,0,1-.753-.731,3.39,3.39,0,0,1,0-2.622,1.677,1.677,0,0,1,.753-.746,2.546,2.546,0,0,1,1.13-.241,4.14,4.14,0,0,1,.814.083,4.962,4.962,0,0,1,.761.234v.964a6.669,6.669,0,0,0-.738-.332,2.024,2.024,0,0,0-.7-.128,1.516,1.516,0,0,0-.64.128.861.861,0,0,0-.407.452,2.268,2.268,0,0,0-.136.866,2.141,2.141,0,0,0,.143.866.932.932,0,0,0,.4.46,1.27,1.27,0,0,0,.6.136,2.294,2.294,0,0,0,.332-.023.884.884,0,0,0,.271-.083v-.776h-.723v-.829h1.793v2.064a3.962,3.962,0,0,1-.851.347,3.318,3.318,0,0,1-.9.128Z" transform="translate(-2.993 -74.682)" fill="#fff"/>
          <path id="Path_32" data-name="Path 32" d="M20.767,87.563a2.307,2.307,0,0,1-1.522-.429,1.654,1.654,0,0,1-.5-1.341V83.05h1.115v2.7a1.131,1.131,0,0,0,.2.746.8.8,0,0,0,.655.241.834.834,0,0,0,.633-.241,1.064,1.064,0,0,0,.226-.746v-2.7H22.59v2.743a1.916,1.916,0,0,1-.234,1,1.444,1.444,0,0,1-.64.58A2.2,2.2,0,0,1,20.767,87.563Z" transform="translate(-4.621 -74.717)" fill="#fff"/>
          <path id="Path_33" data-name="Path 33" d="M25.27,87.427V83.05h1.07V86.6h1.914v.836H25.278Z" transform="translate(-6.231 -74.717)" fill="#fff"/>
          <path id="Path_34" data-name="Path 34" d="M29.8,87.427l1.658-4.377h1.168l1.552,4.377H33.085l-1.4-4.129.52-.045L30.81,87.427H29.8Zm.934-.949.218-.784h2l.1.784H30.734Z" transform="translate(-7.348 -74.717)" fill="#fff"/>
          <path id="Path_35" data-name="Path 35" d="M36.518,87.427V83.05H37.6l1.507,2.095-.58.023,1.56-2.117h1.062v4.377h-1.07V83.849l.211.339-1.5,1.989L37.3,84.158,37.535,84v3.428H36.51Z" transform="translate(-9.002 -74.717)" fill="#fff"/>
          <path id="Path_36" data-name="Path 36" d="M43.59,87.427l1.658-4.377h1.168l1.552,4.377H46.875l-1.4-4.129.52-.045L44.6,87.427Zm.934-.949.218-.784h2l.1.784Z" transform="translate(-10.748 -74.717)" fill="#fff"/>
          <path id="Path_37" data-name="Path 37" d="M50.32,87.427V83.05h1.07V86.6H53.3v.836H50.328Z" transform="translate(-12.407 -74.717)" fill="#fff"/>
          <path id="Path_38" data-name="Path 38" d="M55.35,87.427V83.05h1.07v4.377Z" transform="translate(-13.647 -74.717)" fill="#fff"/>
          <path id="Path_39" data-name="Path 39" d="M60.77,87.427V83.05h1.869a2.544,2.544,0,0,1,.836.121,1.038,1.038,0,0,1,.746,1.092.75.75,0,0,1-.143.482,1.233,1.233,0,0,1-.347.309,2.881,2.881,0,0,1-.384.181l-.121-.226a1.506,1.506,0,0,1,.633.151,1.043,1.043,0,0,1,.429.377,1.02,1.02,0,0,1,.158.573,1.241,1.241,0,0,1-.218.753,1.373,1.373,0,0,1-.588.437,2.172,2.172,0,0,1-.814.143H60.785Zm1.07-2.66H62.7a.506.506,0,0,0,.211-.045.349.349,0,0,0,.158-.136.456.456,0,0,0,.06-.241.414.414,0,0,0-.143-.369.614.614,0,0,0-.354-.105H61.84v.9Zm0,1.838h.9a.768.768,0,0,0,.3-.053.509.509,0,0,0,.226-.173.532.532,0,0,0,.083-.324.506.506,0,0,0-.053-.249.348.348,0,0,0-.143-.151.609.609,0,0,0-.2-.083,1.17,1.17,0,0,0-.234-.023H61.84v1.055Z" transform="translate(-14.983 -74.717)" fill="#fff"/>
          <path id="Path_40" data-name="Path 40" d="M66.82,87.146V82.769h1.07v4.377Zm.1-4.581V81.91h.806v.655Z" transform="translate(-16.475 -74.436)" fill="#fff"/>
          <path id="Path_41" data-name="Path 41" d="M69.65,87.427V83.05h1.07V86.6h1.914v.836H69.658Z" transform="translate(-17.173 -74.717)" fill="#fff"/>
          <path id="Path_42" data-name="Path 42" d="M74.68,87.146V82.769h1.07v4.377Zm.1-4.581V81.91h.806v.655Z" transform="translate(-18.413 -74.436)" fill="#fff"/>
          <path id="Path_43" data-name="Path 43" d="M77.518,87.427V83.05H78.6l1.507,2.095-.58.023,1.56-2.117h1.062v4.377h-1.07V83.849l.211.339-1.5,1.989L78.3,84.158,78.535,84v3.428H77.51Z" transform="translate(-19.111 -74.717)" fill="#fff"/>
          <path id="Path_44" data-name="Path 44" d="M85.09,87.427V83.05h1.07V86.6h1.914v.836H85.1Z" transform="translate(-20.98 -74.717)" fill="#fff"/>
          <path id="Path_45" data-name="Path 45" d="M90.12,87.427V83.05h3.014v.821H91.19v.949h1.688v.829H91.19v.957h1.944v.821H90.12Z" transform="translate(-22.22 -74.717)" fill="#fff"/>
          <path id="Path_46" data-name="Path 46" d="M95.48,87.427V83.05h2.14a1.77,1.77,0,0,1,1.168.347,1.287,1.287,0,0,1,.422,1.047,1.338,1.338,0,0,1-.121.565,1.385,1.385,0,0,1-.347.482,1.11,1.11,0,0,1-.58.256l-.068-.362,1.341,2.042H98.079l-1.1-1.914.475.4h-.9V87.42H95.48Zm1.07-2.29h.9a.634.634,0,0,0,.445-.151.657.657,0,0,0,.166-.5.649.649,0,0,0-.151-.46.551.551,0,0,0-.422-.158h-.942v1.266Z" transform="translate(-23.542 -74.717)" fill="#fff"/>
          <path id="Path_47" data-name="Path 47" d="M22.567,98.215a2.307,2.307,0,0,1-1.522-.429,1.664,1.664,0,0,1-.5-1.341V93.7h1.115v2.7a1.131,1.131,0,0,0,.2.746.8.8,0,0,0,.655.241.834.834,0,0,0,.633-.241,1.064,1.064,0,0,0,.226-.746V93.7H24.39v2.743a1.916,1.916,0,0,1-.234,1,1.444,1.444,0,0,1-.64.58A2.2,2.2,0,0,1,22.567,98.215Zm-1.145-4.8V92.76h.844v.655Zm1.206,0V92.76h.851v.655Z" transform="translate(-5.064 -77.111)" fill="#fff"/>
          <path id="Path_48" data-name="Path 48" d="M27.07,98.387V94.01h.912l2.26,3.036-.316.655V94.01h.979v4.377H30.1l-2.3-3,.249-.482V98.38H27.07Z" transform="translate(-6.674 -77.419)" fill="#fff"/>
          <path id="Path_49" data-name="Path 49" d="M33.58,98.106V93.729h1.07v4.377Zm.1-4.581V92.87h.806v.655Z" transform="translate(-8.28 -77.138)" fill="#fff"/>
          <path id="Path_50" data-name="Path 50" d="M37.542,98.387,35.9,94.01h1.236l1.243,3.722h-.347l1.236-3.714H40.4L38.68,98.4H37.543Z" transform="translate(-8.852 -77.419)" fill="#fff"/>
          <path id="Path_51" data-name="Path 51" d="M42.79,98.387V94.01H45.8v.821H43.86v.949h1.688v.829H43.86v.957H45.8v.821H42.79Z" transform="translate(-10.55 -77.419)" fill="#fff"/>
          <path id="Path_52" data-name="Path 52" d="M48.15,98.387V94.01h2.14a1.77,1.77,0,0,1,1.168.347A1.287,1.287,0,0,1,51.88,95.4a1.337,1.337,0,0,1-.121.565,1.3,1.3,0,0,1-.347.482,1.11,1.11,0,0,1-.58.256l-.068-.362,1.341,2.042H50.749l-1.1-1.914.475.4h-.9v1.514H48.15Zm1.07-2.3h.9a.634.634,0,0,0,.445-.151.657.657,0,0,0,.166-.5.649.649,0,0,0-.151-.46.551.551,0,0,0-.422-.158h-.942v1.266Z" transform="translate(-11.872 -77.419)" fill="#fff"/>
          <path id="Path_53" data-name="Path 53" d="M55.957,98.448a4.8,4.8,0,0,1-.6-.03,3.226,3.226,0,0,1-.5-.1,2.466,2.466,0,0,1-.445-.173v-1.01a2.081,2.081,0,0,0,.686.369,2.365,2.365,0,0,0,.723.128.823.823,0,0,0,.467-.113.408.408,0,0,0,.158-.354.344.344,0,0,0-.151-.286,1.266,1.266,0,0,0-.392-.188c-.166-.053-.347-.121-.55-.188a2.313,2.313,0,0,1-.377-.151,1.259,1.259,0,0,1-.332-.234,1.04,1.04,0,0,1-.234-.347,1.228,1.228,0,0,1-.083-.5,1.357,1.357,0,0,1,.1-.52,1.187,1.187,0,0,1,.309-.445A1.5,1.5,0,0,1,55.264,94a2.312,2.312,0,0,1,.761-.113,2.957,2.957,0,0,1,.475.03,2.377,2.377,0,0,1,.4.1c.128.045.256.1.392.158V95.2a2.426,2.426,0,0,0-.339-.234,2.039,2.039,0,0,0-.392-.181,1.353,1.353,0,0,0-.429-.075,1.334,1.334,0,0,0-.362.038.541.541,0,0,0-.256.151.38.38,0,0,0-.09.256.369.369,0,0,0,.113.286.922.922,0,0,0,.309.173c.136.045.279.1.445.151.181.053.347.113.5.173a1.412,1.412,0,0,1,.4.241,1.015,1.015,0,0,1,.264.354,1.286,1.286,0,0,1,.09.5,1.355,1.355,0,0,1-.188.716,1.3,1.3,0,0,1-.535.512,1.766,1.766,0,0,1-.859.188Z" transform="translate(-13.396 -77.39)" fill="#fff"/>
          <path id="Path_54" data-name="Path 54" d="M59.75,98.106V93.729h1.07v4.377Zm.1-4.581V92.87h.806v.655Z" transform="translate(-14.732 -77.138)" fill="#fff"/>
          <path id="Path_55" data-name="Path 55" d="M63.406,98.387V94.831H62.17V94.01h3.556v.821H64.476v3.556h-1.07Z" transform="translate(-15.329 -77.419)" fill="#fff"/>
          <path id="Path_56" data-name="Path 56" d="M67.9,98.387V94.01h3.014v.821H68.97v.949h1.688v.829H68.97v.957h1.944v.821H67.9Z" transform="translate(-16.741 -77.419)" fill="#fff"/>
          <path id="Path_57" data-name="Path 57" d="M74.687,98.448a4.8,4.8,0,0,1-.6-.03,3.226,3.226,0,0,1-.5-.1,2.467,2.467,0,0,1-.445-.173v-1.01a2.081,2.081,0,0,0,.686.369,2.365,2.365,0,0,0,.723.128.823.823,0,0,0,.467-.113.408.408,0,0,0,.158-.354.344.344,0,0,0-.151-.286,1.266,1.266,0,0,0-.392-.188c-.166-.053-.347-.121-.55-.188a2.313,2.313,0,0,1-.377-.151,1.259,1.259,0,0,1-.332-.234,1.04,1.04,0,0,1-.234-.347,1.228,1.228,0,0,1-.083-.5,1.357,1.357,0,0,1,.1-.52,1.187,1.187,0,0,1,.309-.445A1.574,1.574,0,0,1,73.994,94a2.312,2.312,0,0,1,.761-.113,2.956,2.956,0,0,1,.475.03,2.377,2.377,0,0,1,.4.1c.128.045.256.1.392.158V95.2a2.426,2.426,0,0,0-.339-.234,2.04,2.04,0,0,0-.392-.181,1.353,1.353,0,0,0-.429-.075,1.334,1.334,0,0,0-.362.038.506.506,0,0,0-.256.151.38.38,0,0,0-.09.256.369.369,0,0,0,.113.286.922.922,0,0,0,.309.173c.128.045.279.1.445.151.181.053.347.113.5.173a1.412,1.412,0,0,1,.4.241,1.015,1.015,0,0,1,.264.354,1.286,1.286,0,0,1,.09.5,1.355,1.355,0,0,1-.188.716,1.3,1.3,0,0,1-.535.512,1.766,1.766,0,0,1-.859.188Z" transform="translate(-18.014 -77.39)" fill="#fff"/>
          <path id="Path_58" data-name="Path 58" d="M78.48,98.106V93.729h1.07v4.377Zm.1-4.581V92.87h.806v.655Z" transform="translate(-19.35 -77.138)" fill="#fff"/>
        </g>
        <g id="Group_4" data-name="Group 4" transform="translate(18.52)">
          <path id="Path_59" data-name="Path 59" d="M58.841,1.705h0a.028.028,0,0,1-.023-.008.075.075,0,0,1-.03-.008c-.053.023-.173.068-.173.068h0a.033.033,0,0,0-.023.008c-.151.06-.3.113-.452.173-.083.03-.166.06-.241.09-.158.06-.316.128-.475.188l-.226.09c-.158.068-.316.128-.475.2l-.226.09-.475.2c-.075.03-.151.06-.226.1-.166.068-.324.143-.49.218l-.2.09c-.166.075-.339.158-.5.234a1.927,1.927,0,0,1-.181.083c-.226.105-.452.218-.678.332h0c-.226.113-.452.226-.678.347a40.19,40.19,0,0,0-7.549,5.063A40.19,40.19,0,0,0,37.963,4.2c-.226-.121-.452-.234-.678-.347h0c-.226-.113-.452-.226-.678-.332a1.927,1.927,0,0,0-.181-.083c-.166-.083-.339-.158-.5-.234l-.2-.09c-.166-.075-.324-.151-.49-.218-.075-.03-.151-.06-.226-.1l-.475-.2L34.3,2.5c-.158-.068-.316-.136-.475-.2l-.226-.09c-.158-.06-.316-.128-.475-.188-.083-.03-.166-.06-.241-.09-.151-.06-.3-.113-.452-.173a.058.058,0,0,1-.023-.008h0l-.173-.068a.078.078,0,0,0-.03.008.028.028,0,0,0-.023.008h0c-.429.173-.9.362-1.394.58.377.128.723.241,1.07.354a43.364,43.364,0,0,1,6.261,2.607,31.319,31.319,0,0,1,6.291,4.234c.369.324.738.663,1.092,1l.023.023h0l.023-.023c.354-.347.716-.678,1.092-1a31.422,31.422,0,0,1,6.291-4.234,43.72,43.72,0,0,1,6.261-2.607c.347-.113.693-.234,1.07-.354-.5-.218-.964-.414-1.394-.58Z" transform="translate(-26.111 -0.424)" fill="#fff"/>
          <g id="Group_3" data-name="Group 3">
            <path id="Path_60" data-name="Path 60" d="M71.285,7.7c-.234.113-.46.218-.693.339s-.467.249-.7.377c-.053.03-.1.053-.143.083-.121.068-.241.136-.354.211-.128.075-.241.143-.362.218a16.983,16.983,0,0,0-3.684,3.014,12.936,12.936,0,0,0-2.878,5.093,16.837,16.837,0,0,0-.573,5.817,29.664,29.664,0,0,0,.9,5.515c.452,1.778.942,3.541,1.394,5.319a19.485,19.485,0,0,1,.761,5.553,10.061,10.061,0,0,1-1.507,4.988,16.654,16.654,0,0,1-3.7,4.061,21.881,21.881,0,0,0,3.059-1.371h.015q.429-.237.814-.475c.06-.038.113-.075.173-.105A18.621,18.621,0,0,0,67.4,43.432a9.848,9.848,0,0,0,1.266-1.808,10.32,10.32,0,0,0,.995-5.809,31.992,31.992,0,0,0-.927-5.131,82.646,82.646,0,0,1-1.914-8.747,20.657,20.657,0,0,1-.09-5.282,13.308,13.308,0,0,1,4.468-8.484c.264-.241.535-.475.821-.731-.226.075-.475.173-.731.286Z" transform="translate(-33.252 -1.842)" fill="#fff"/>
            <path id="Path_61" data-name="Path 61" d="M58.777,47.294a9.848,9.848,0,0,0,1.266-1.808,10.32,10.32,0,0,0,.995-5.809,31.993,31.993,0,0,0-.927-5.131,82.923,82.923,0,0,1-1.914-8.74,20.657,20.657,0,0,1-.09-5.282,13.308,13.308,0,0,1,4.468-8.484c.264-.241.535-.475.821-.731-.226.075-.475.173-.731.286-.234.113-.46.218-.693.339s-.467.249-.7.377c-.053.03-.1.053-.143.083-.121.068-.241.136-.354.211-.128.075-.241.143-.362.218a16.983,16.983,0,0,0-3.684,3.014,12.936,12.936,0,0,0-2.878,5.093,16.837,16.837,0,0,0-.573,5.817,29.664,29.664,0,0,0,.9,5.515c.452,1.778.942,3.541,1.394,5.319a19.484,19.484,0,0,1,.761,5.553,10.061,10.061,0,0,1-1.507,4.988,16.654,16.654,0,0,1-3.7,4.061,21.881,21.881,0,0,0,3.059-1.371H54.2q.429-.237.814-.475c.06-.038.113-.075.173-.105a18.91,18.91,0,0,0,3.586-2.908Z" transform="translate(-31.126 -2.796)" fill="#fff"/>
            <path id="Path_62" data-name="Path 62" d="M33.147,44.223a10.162,10.162,0,0,1-1.507-4.988,19.484,19.484,0,0,1,.761-5.553c.452-1.778.942-3.541,1.394-5.319a29.664,29.664,0,0,0,.9-5.515,16.819,16.819,0,0,0-.573-5.817,12.884,12.884,0,0,0-2.878-5.093,16.806,16.806,0,0,0-3.684-3.014c-.113-.068-.234-.143-.362-.218s-.234-.143-.354-.211c-.045-.03-.1-.053-.143-.083-.234-.128-.467-.256-.7-.377s-.46-.226-.693-.339c-.256-.113-.5-.211-.731-.286.286.256.558.49.821.731a13.274,13.274,0,0,1,4.468,8.484,20.657,20.657,0,0,1-.09,5.282,80.811,80.811,0,0,1-1.914,8.747,31.325,31.325,0,0,0-.927,5.131,10.256,10.256,0,0,0,.995,5.809A9.6,9.6,0,0,0,29.2,43.4a18.153,18.153,0,0,0,3.586,2.908c.06.038.113.075.173.105.264.158.535.324.814.475h.015a20.68,20.68,0,0,0,3.059,1.371,16.654,16.654,0,0,1-3.7-4.061Z" transform="translate(-24.58 -1.835)" fill="#fff"/>
            <path id="Path_63" data-name="Path 63" d="M41.767,48.113a10.162,10.162,0,0,1-1.507-4.988,19.484,19.484,0,0,1,.761-5.553c.452-1.778.942-3.541,1.394-5.319a29.664,29.664,0,0,0,.9-5.515,16.819,16.819,0,0,0-.573-5.817,12.832,12.832,0,0,0-2.878-5.093,16.805,16.805,0,0,0-3.684-3.014c-.113-.068-.234-.143-.362-.218s-.234-.143-.354-.211c-.045-.03-.1-.053-.143-.083-.234-.128-.467-.256-.7-.377s-.46-.226-.693-.339c-.256-.113-.5-.211-.731-.286.286.256.558.49.821.731a13.274,13.274,0,0,1,4.468,8.484A20.657,20.657,0,0,1,38.4,25.8a80.288,80.288,0,0,1-1.914,8.74,31.325,31.325,0,0,0-.927,5.131,10.256,10.256,0,0,0,.995,5.809,9.6,9.6,0,0,0,1.266,1.808A18.154,18.154,0,0,0,41.4,50.193c.06.038.113.075.173.105.264.158.535.324.814.475h.015a20.68,20.68,0,0,0,3.059,1.371,16.654,16.654,0,0,1-3.7-4.061Z" transform="translate(-26.705 -2.794)" fill="#fff"/>
            <path id="Path_64" data-name="Path 64" d="M53.344,8.345A38.453,38.453,0,0,1,62.091,5.5c.4-.083.814-.158,1.266-.249q-.769-.407-1.469-.769c-.445.105-.889.2-1.326.309A40.247,40.247,0,0,0,52.221,7.75,31.138,31.138,0,0,0,47.5,10.628c-1.243.927-3.519,2.916-3.519,2.916S41.7,11.555,40.46,10.628A29.968,29.968,0,0,0,35.736,7.75,39.815,39.815,0,0,0,27.4,4.789c-.445-.105-.889-.2-1.326-.309q-.7.362-1.469.769c.452.09.866.166,1.266.249a38.453,38.453,0,0,1,8.747,2.848,33.82,33.82,0,0,1,7.836,5.176c.475.414,1.047.927,1.507,1.386l.023.023L44,14.908c.467-.46,1.032-.972,1.507-1.386A34.142,34.142,0,0,1,53.344,8.345Z" transform="translate(-24.585 -1.112)" fill="#fff"/>
            <path id="Path_65" data-name="Path 65" d="M32.836,1.748a1.535,1.535,0,0,1-.166-.068h0c.053.023.173.068.173.068h0Z" transform="translate(-26.575 -0.422)" fill="#fff"/>
            <path id="Path_66" data-name="Path 66" d="M43.537,4.516c.964.655,2.238,1.59,3.232,2.381,0,0,.015.015.023.015s.015-.015.023-.015c.995-.791,2.26-1.725,3.232-2.381a44.933,44.933,0,0,1,6.035-3.428c.475-.226.957-.445,1.492-.7-.105-.03-1.326-.332-1.56-.377h-.023a.782.782,0,0,0-.075.03h0c-.143.06-.286.128-.437.2s-.286.128-.429.2-.279.136-.414.2-.294.143-.437.211-.3.151-.445.234c-.136.068-.264.136-.4.2-.279.151-.558.3-.836.46a64,64,0,0,0-5.673,3.978.1.1,0,0,0-.03.023l-.008.008L46.8,5.744a.141.141,0,0,0-.03-.023A64,64,0,0,0,41.1,1.743c-.279-.158-.558-.309-.836-.46-.136-.068-.264-.136-.4-.2C39.709,1,39.566.922,39.415.846S39.122.7,38.978.635,38.7.5,38.564.432s-.286-.128-.429-.2S37.848.1,37.7.04h0a.519.519,0,0,1-.075-.03H37.6c-.234.045-1.454.347-1.56.377.535.249,1.017.475,1.492.7a44.933,44.933,0,0,1,6.035,3.428Z" transform="translate(-27.406 -0.01)" fill="#fff"/>
          </g>
        </g>
      </g>
    </g>
  </g>
</svg>
